<mxfile host="Electron" modified="2024-03-11T01:23:07.399Z" agent="Mozilla/5.0 (Windows NT 10.0; Win64; x64) AppleWebKit/537.36 (KHTML, like Gecko) draw.io/24.0.4 Chrome/120.0.6099.109 Electron/28.1.0 Safari/537.36" etag="N8vRdt5fe80Ht8yHNEMk" version="24.0.4" type="device">
  <diagram name="Page-1" id="Mc9FGGh3E4qbQP1jAL2i">
    <mxGraphModel dx="1185" dy="478" grid="1" gridSize="10" guides="1" tooltips="1" connect="1" arrows="1" fold="1" page="1" pageScale="1" pageWidth="850" pageHeight="1100" math="0" shadow="0">
      <root>
        <mxCell id="0" />
        <mxCell id="1" parent="0" />
        <mxCell id="Vr5C3VxB8EQijEDjQbC5-8" style="edgeStyle=orthogonalEdgeStyle;rounded=0;orthogonalLoop=1;jettySize=auto;html=1;entryX=0;entryY=0.5;entryDx=0;entryDy=0;" edge="1" parent="1" source="Vr5C3VxB8EQijEDjQbC5-2" target="Vr5C3VxB8EQijEDjQbC5-7">
          <mxGeometry relative="1" as="geometry" />
        </mxCell>
        <mxCell id="Vr5C3VxB8EQijEDjQbC5-2" value="Cámara" style="rounded=1;whiteSpace=wrap;html=1;" vertex="1" parent="1">
          <mxGeometry x="80" y="90" width="80" height="40" as="geometry" />
        </mxCell>
        <mxCell id="Vr5C3VxB8EQijEDjQbC5-9" style="edgeStyle=orthogonalEdgeStyle;rounded=0;orthogonalLoop=1;jettySize=auto;html=1;entryX=0;entryY=0.5;entryDx=0;entryDy=0;" edge="1" parent="1" source="Vr5C3VxB8EQijEDjQbC5-3" target="Vr5C3VxB8EQijEDjQbC5-7">
          <mxGeometry relative="1" as="geometry" />
        </mxCell>
        <mxCell id="Vr5C3VxB8EQijEDjQbC5-3" value="Cámara" style="rounded=1;whiteSpace=wrap;html=1;" vertex="1" parent="1">
          <mxGeometry x="80" y="170" width="80" height="40" as="geometry" />
        </mxCell>
        <mxCell id="Vr5C3VxB8EQijEDjQbC5-10" style="edgeStyle=orthogonalEdgeStyle;rounded=0;orthogonalLoop=1;jettySize=auto;html=1;entryX=0;entryY=0.5;entryDx=0;entryDy=0;" edge="1" parent="1" source="Vr5C3VxB8EQijEDjQbC5-4" target="Vr5C3VxB8EQijEDjQbC5-7">
          <mxGeometry relative="1" as="geometry" />
        </mxCell>
        <mxCell id="Vr5C3VxB8EQijEDjQbC5-4" value="Cámara" style="rounded=1;whiteSpace=wrap;html=1;" vertex="1" parent="1">
          <mxGeometry x="80" y="250" width="80" height="40" as="geometry" />
        </mxCell>
        <mxCell id="Vr5C3VxB8EQijEDjQbC5-7" value="Servidor de reconocimiento de &quot;mecheros&quot;" style="rounded=1;whiteSpace=wrap;html=1;" vertex="1" parent="1">
          <mxGeometry x="240" y="160" width="120" height="60" as="geometry" />
        </mxCell>
        <mxCell id="Vr5C3VxB8EQijEDjQbC5-11" value="Cámaras instaladas&amp;nbsp;&lt;div&gt;en locales&lt;/div&gt;" style="text;html=1;align=center;verticalAlign=middle;resizable=0;points=[];autosize=1;strokeColor=none;fillColor=none;" vertex="1" parent="1">
          <mxGeometry x="55" y="40" width="130" height="40" as="geometry" />
        </mxCell>
        <mxCell id="Vr5C3VxB8EQijEDjQbC5-13" style="edgeStyle=orthogonalEdgeStyle;rounded=0;orthogonalLoop=1;jettySize=auto;html=1;entryX=0.5;entryY=0;entryDx=0;entryDy=0;" edge="1" parent="1" source="Vr5C3VxB8EQijEDjQbC5-12" target="Vr5C3VxB8EQijEDjQbC5-7">
          <mxGeometry relative="1" as="geometry" />
        </mxCell>
        <mxCell id="Vr5C3VxB8EQijEDjQbC5-12" value="BBDD" style="shape=cylinder3;whiteSpace=wrap;html=1;boundedLbl=1;backgroundOutline=1;size=4.857142857142826;" vertex="1" parent="1">
          <mxGeometry x="270" y="50" width="60" height="50" as="geometry" />
        </mxCell>
        <mxCell id="Vr5C3VxB8EQijEDjQbC5-14" value="" style="shape=actor;whiteSpace=wrap;html=1;" vertex="1" parent="1">
          <mxGeometry x="450" y="165" width="40" height="50" as="geometry" />
        </mxCell>
        <mxCell id="Vr5C3VxB8EQijEDjQbC5-15" style="edgeStyle=orthogonalEdgeStyle;rounded=0;orthogonalLoop=1;jettySize=auto;html=1;entryX=0.1;entryY=0.5;entryDx=0;entryDy=0;entryPerimeter=0;" edge="1" parent="1" source="Vr5C3VxB8EQijEDjQbC5-7" target="Vr5C3VxB8EQijEDjQbC5-14">
          <mxGeometry relative="1" as="geometry" />
        </mxCell>
        <mxCell id="Vr5C3VxB8EQijEDjQbC5-16" value="Guardias" style="text;html=1;align=center;verticalAlign=middle;resizable=0;points=[];autosize=1;strokeColor=none;fillColor=none;" vertex="1" parent="1">
          <mxGeometry x="490" y="175" width="70" height="30" as="geometry" />
        </mxCell>
        <mxCell id="Vr5C3VxB8EQijEDjQbC5-19" value="" style="sketch=0;pointerEvents=1;shadow=0;dashed=0;html=1;labelPosition=center;verticalLabelPosition=bottom;verticalAlign=top;align=center;shape=mxgraph.mscae.oms.alerts" vertex="1" parent="1">
          <mxGeometry x="454.75" y="90" width="30.5" height="30" as="geometry" />
        </mxCell>
        <mxCell id="Vr5C3VxB8EQijEDjQbC5-20" value="Alerta" style="text;html=1;align=center;verticalAlign=middle;resizable=0;points=[];autosize=1;strokeColor=none;fillColor=none;" vertex="1" parent="1">
          <mxGeometry x="490" y="95" width="50" height="30" as="geometry" />
        </mxCell>
        <mxCell id="Vr5C3VxB8EQijEDjQbC5-21" style="edgeStyle=orthogonalEdgeStyle;rounded=0;orthogonalLoop=1;jettySize=auto;html=1;entryX=-0.011;entryY=0.562;entryDx=0;entryDy=0;entryPerimeter=0;" edge="1" parent="1" source="Vr5C3VxB8EQijEDjQbC5-7" target="Vr5C3VxB8EQijEDjQbC5-19">
          <mxGeometry relative="1" as="geometry" />
        </mxCell>
        <mxCell id="Vr5C3VxB8EQijEDjQbC5-22" value="" style="verticalLabelPosition=bottom;html=1;verticalAlign=top;align=center;shape=mxgraph.azure.notification_topic;" vertex="1" parent="1">
          <mxGeometry x="454.75" y="245" width="50" height="50" as="geometry" />
        </mxCell>
        <mxCell id="Vr5C3VxB8EQijEDjQbC5-23" style="edgeStyle=orthogonalEdgeStyle;rounded=0;orthogonalLoop=1;jettySize=auto;html=1;entryX=0;entryY=0.5;entryDx=0;entryDy=0;entryPerimeter=0;" edge="1" parent="1" source="Vr5C3VxB8EQijEDjQbC5-7" target="Vr5C3VxB8EQijEDjQbC5-22">
          <mxGeometry relative="1" as="geometry" />
        </mxCell>
        <mxCell id="Vr5C3VxB8EQijEDjQbC5-24" value="Notificación" style="text;html=1;align=center;verticalAlign=middle;resizable=0;points=[];autosize=1;strokeColor=none;fillColor=none;" vertex="1" parent="1">
          <mxGeometry x="504.75" y="255" width="90" height="30" as="geometry" />
        </mxCell>
      </root>
    </mxGraphModel>
  </diagram>
</mxfile>
